<svg width="213" height="68" viewBox="0 0 213 68" fill="none" xmlns="http://www.w3.org/2000/svg">
<path d="M25.7452 2.57174C39.0506 3.58528 46.9248 21.8289 46.9248 21.8289C46.9248 21.8289 49.4348 28.3093 53.0196 26.3899C57.5516 23.9632 33.8277 -9.08395 46.9248 4.09203C60.0219 17.268 67.0648 30.5453 77.6292 45.1403C88.1936 59.7352 87.0324 59.3298 63.3301 58.823C39.6278 58.3163 39.6467 25.1918 22.3592 39.5658C13.2169 47.1674 37.5963 58.823 34.2103 58.823C30.8242 58.823 7.30304 48.6877 7.98545 45.1403C8.66786 41.5928 10.5081 37.5388 14.5491 32.9778C18.5902 28.4169 22.0205 22.8425 16.2643 21.8289C11.0906 20.918 1.36614 32.7306 1.02718 31.4575C0.474361 29.3813 8.47644 18.2815 13.8941 16.2545C19.3117 14.2274 20.3275 13.7206 31.5792 16.2545C32.5295 15.6008 28.7454 11.8921 21.3433 9.66648C16.1454 8.10362 3.39739 12.7071 5.76761 9.66648C8.13783 6.62587 12.4397 1.55821 25.7452 2.57174Z" fill="#915EFF" stroke="white"/>
<path d="M100.2 59.4C97.72 59.4 94.6533 59.16 91 58.68V53.92C95.5333 54.6133 98.6267 54.96 100.28 54.96C103.747 54.96 105.48 54.0667 105.48 52.28V50.6C105.48 49.7467 105.227 49.0933 104.72 48.64C104.24 48.1867 103.36 47.96 102.08 47.96H99.04C93.3333 47.96 90.48 45.6933 90.48 41.16V39.24C90.48 36.9733 91.4267 35.3067 93.32 34.24C95.2133 33.1733 98.2133 32.64 102.32 32.64C104.453 32.64 107.16 32.8133 110.44 33.16V37.8C106.413 37.32 103.64 37.08 102.12 37.08C100.013 37.08 98.6 37.2533 97.88 37.6C97.1067 37.9733 96.72 38.56 96.72 39.36V41.2C96.72 42.56 97.8667 43.24 100.16 43.24H103.28C106.24 43.24 108.387 43.7867 109.72 44.88C111.053 45.9733 111.72 47.64 111.72 49.88V51.6C111.72 54.6933 110.613 56.7867 108.4 57.88C107.333 58.44 106.147 58.8267 104.84 59.04C103.56 59.28 102.013 59.4 100.2 59.4ZM116.058 33.04H135.858V37.48H122.298V43.44H134.538V47.88H122.298V54.56H136.258V59H116.058V33.04ZM140.512 61.4H158.032V65.44H140.512V61.4ZM163.675 33.04H169.915V59H163.675V33.04ZM170.075 45.24L179.795 33.04H187.115L177.275 45.12L188.195 59H180.595L170.075 45.24ZM190.941 33.04H211.141V37.48H197.181V43.84H209.821V48.28H197.181V59H190.941V33.04Z" fill="#021F4F"/>
<path d="M53.5 24C53.5 26 54.5 31.4853 54.5 35C54.5 38.1242 53.7098 39.9774 54.5 43C55.4319 46.5644 59.5 51 59.5 51" stroke="white" stroke-linecap="round"/>
</svg>
